<mxfile host="Electron" modified="2023-11-08T13:35:46.036Z" agent="Mozilla/5.0 (Windows NT 10.0; Win64; x64) AppleWebKit/537.36 (KHTML, like Gecko) draw.io/22.0.3 Chrome/114.0.5735.289 Electron/25.8.4 Safari/537.36" etag="qN78Cpe8g1J2eljonBc-" version="22.0.3" type="device">
  <diagram name="Page-1" id="L2rJacLaF8L4Rp7sMUVg">
    <mxGraphModel dx="1480" dy="866" grid="1" gridSize="10" guides="1" tooltips="1" connect="1" arrows="1" fold="1" page="1" pageScale="1" pageWidth="1169" pageHeight="827" math="0" shadow="0">
      <root>
        <mxCell id="0" />
        <mxCell id="1" parent="0" />
        <mxCell id="sya3kmw8meV3yh9rnXG1-1" value="Bank Database" style="rounded=0;whiteSpace=wrap;html=1;" vertex="1" parent="1">
          <mxGeometry x="680" y="100" width="120" height="60" as="geometry" />
        </mxCell>
        <mxCell id="sya3kmw8meV3yh9rnXG1-2" value="ATM" style="rounded=0;whiteSpace=wrap;html=1;" vertex="1" parent="1">
          <mxGeometry x="420" y="100" width="120" height="60" as="geometry" />
        </mxCell>
        <mxCell id="sya3kmw8meV3yh9rnXG1-3" value="User" style="rounded=0;whiteSpace=wrap;html=1;" vertex="1" parent="1">
          <mxGeometry x="160" y="100" width="120" height="60" as="geometry" />
        </mxCell>
        <mxCell id="sya3kmw8meV3yh9rnXG1-4" value="" style="html=1;points=[[0,0,0,0,5],[0,1,0,0,-5],[1,0,0,0,5],[1,1,0,0,-5]];perimeter=orthogonalPerimeter;outlineConnect=0;targetShapes=umlLifeline;portConstraint=eastwest;newEdgeStyle={&quot;curved&quot;:0,&quot;rounded&quot;:0};" vertex="1" parent="1">
          <mxGeometry x="215" y="308" width="10" height="62" as="geometry" />
        </mxCell>
        <mxCell id="sya3kmw8meV3yh9rnXG1-5" value="" style="html=1;points=[[0,0,0,0,5],[0,1,0,0,-5],[1,0,0,0,5],[1,1,0,0,-5]];perimeter=orthogonalPerimeter;outlineConnect=0;targetShapes=umlLifeline;portConstraint=eastwest;newEdgeStyle={&quot;curved&quot;:0,&quot;rounded&quot;:0};" vertex="1" parent="1">
          <mxGeometry x="475" y="360" width="10" height="350" as="geometry" />
        </mxCell>
        <mxCell id="sya3kmw8meV3yh9rnXG1-6" value="" style="html=1;points=[[0,0,0,0,5],[0,1,0,0,-5],[1,0,0,0,5],[1,1,0,0,-5]];perimeter=orthogonalPerimeter;outlineConnect=0;targetShapes=umlLifeline;portConstraint=eastwest;newEdgeStyle={&quot;curved&quot;:0,&quot;rounded&quot;:0};" vertex="1" parent="1">
          <mxGeometry x="735" y="380" width="10" height="60" as="geometry" />
        </mxCell>
        <mxCell id="sya3kmw8meV3yh9rnXG1-7" value="" style="html=1;points=[[0,0,0,0,5],[0,1,0,0,-5],[1,0,0,0,5],[1,1,0,0,-5]];perimeter=orthogonalPerimeter;outlineConnect=0;targetShapes=umlLifeline;portConstraint=eastwest;newEdgeStyle={&quot;curved&quot;:0,&quot;rounded&quot;:0};" vertex="1" parent="1">
          <mxGeometry x="735" y="240" width="10" height="50" as="geometry" />
        </mxCell>
        <mxCell id="sya3kmw8meV3yh9rnXG1-8" value="" style="html=1;points=[[0,0,0,0,5],[0,1,0,0,-5],[1,0,0,0,5],[1,1,0,0,-5]];perimeter=orthogonalPerimeter;outlineConnect=0;targetShapes=umlLifeline;portConstraint=eastwest;newEdgeStyle={&quot;curved&quot;:0,&quot;rounded&quot;:0};" vertex="1" parent="1">
          <mxGeometry x="475" y="220" width="10" height="100" as="geometry" />
        </mxCell>
        <mxCell id="sya3kmw8meV3yh9rnXG1-9" value="" style="html=1;points=[[0,0,0,0,5],[0,1,0,0,-5],[1,0,0,0,5],[1,1,0,0,-5]];perimeter=orthogonalPerimeter;outlineConnect=0;targetShapes=umlLifeline;portConstraint=eastwest;newEdgeStyle={&quot;curved&quot;:0,&quot;rounded&quot;:0};" vertex="1" parent="1">
          <mxGeometry x="215" y="210" width="10" height="40" as="geometry" />
        </mxCell>
        <mxCell id="sya3kmw8meV3yh9rnXG1-10" value="" style="html=1;verticalAlign=bottom;labelBackgroundColor=none;endArrow=block;endFill=1;rounded=0;entryX=0;entryY=0;entryDx=0;entryDy=5;entryPerimeter=0;" edge="1" parent="1" source="sya3kmw8meV3yh9rnXG1-8" target="sya3kmw8meV3yh9rnXG1-7">
          <mxGeometry width="160" relative="1" as="geometry">
            <mxPoint x="300" y="310" as="sourcePoint" />
            <mxPoint x="730" y="250" as="targetPoint" />
          </mxGeometry>
        </mxCell>
        <mxCell id="sya3kmw8meV3yh9rnXG1-11" value="" style="html=1;verticalAlign=bottom;labelBackgroundColor=none;endArrow=block;endFill=1;rounded=0;" edge="1" parent="1" source="sya3kmw8meV3yh9rnXG1-9" target="sya3kmw8meV3yh9rnXG1-8">
          <mxGeometry width="160" relative="1" as="geometry">
            <mxPoint x="300" y="310" as="sourcePoint" />
            <mxPoint x="470" y="240" as="targetPoint" />
            <Array as="points">
              <mxPoint x="360" y="230" />
            </Array>
          </mxGeometry>
        </mxCell>
        <mxCell id="sya3kmw8meV3yh9rnXG1-12" value="Insert ATM" style="text;html=1;align=center;verticalAlign=middle;resizable=0;points=[];autosize=1;strokeColor=none;fillColor=none;" vertex="1" parent="1">
          <mxGeometry x="280" y="198" width="80" height="30" as="geometry" />
        </mxCell>
        <mxCell id="sya3kmw8meV3yh9rnXG1-13" value="Check Card" style="text;html=1;align=center;verticalAlign=middle;resizable=0;points=[];autosize=1;strokeColor=none;fillColor=none;" vertex="1" parent="1">
          <mxGeometry x="565" y="220" width="90" height="30" as="geometry" />
        </mxCell>
        <mxCell id="sya3kmw8meV3yh9rnXG1-14" value="" style="html=1;verticalAlign=bottom;labelBackgroundColor=none;endArrow=block;endFill=1;dashed=1;rounded=0;entryX=1;entryY=0;entryDx=0;entryDy=5;entryPerimeter=0;" edge="1" parent="1" source="sya3kmw8meV3yh9rnXG1-8" target="sya3kmw8meV3yh9rnXG1-4">
          <mxGeometry width="160" relative="1" as="geometry">
            <mxPoint x="470" y="310" as="sourcePoint" />
            <mxPoint x="230" y="310" as="targetPoint" />
            <Array as="points">
              <mxPoint x="350" y="310" />
            </Array>
          </mxGeometry>
        </mxCell>
        <mxCell id="sya3kmw8meV3yh9rnXG1-15" value="" style="html=1;verticalAlign=bottom;labelBackgroundColor=none;endArrow=block;endFill=1;dashed=1;rounded=0;" edge="1" parent="1" target="sya3kmw8meV3yh9rnXG1-8">
          <mxGeometry width="160" relative="1" as="geometry">
            <mxPoint x="730" y="280" as="sourcePoint" />
            <mxPoint x="460" y="310" as="targetPoint" />
          </mxGeometry>
        </mxCell>
        <mxCell id="sya3kmw8meV3yh9rnXG1-16" value="Card OK" style="text;html=1;align=center;verticalAlign=middle;resizable=0;points=[];autosize=1;strokeColor=none;fillColor=none;" vertex="1" parent="1">
          <mxGeometry x="575" y="258" width="70" height="30" as="geometry" />
        </mxCell>
        <mxCell id="sya3kmw8meV3yh9rnXG1-18" value="Request&amp;nbsp; PIN" style="text;html=1;align=center;verticalAlign=middle;resizable=0;points=[];autosize=1;strokeColor=none;fillColor=none;" vertex="1" parent="1">
          <mxGeometry x="300" y="288" width="90" height="30" as="geometry" />
        </mxCell>
        <mxCell id="sya3kmw8meV3yh9rnXG1-19" value="" style="html=1;verticalAlign=bottom;labelBackgroundColor=none;endArrow=block;endFill=1;rounded=0;" edge="1" parent="1" source="sya3kmw8meV3yh9rnXG1-5" target="sya3kmw8meV3yh9rnXG1-6">
          <mxGeometry width="160" relative="1" as="geometry">
            <mxPoint x="300" y="310" as="sourcePoint" />
            <mxPoint x="730" y="390" as="targetPoint" />
            <Array as="points">
              <mxPoint x="600" y="390" />
            </Array>
          </mxGeometry>
        </mxCell>
        <mxCell id="sya3kmw8meV3yh9rnXG1-20" value="" style="html=1;verticalAlign=bottom;labelBackgroundColor=none;endArrow=block;endFill=1;rounded=0;exitX=1;exitY=1;exitDx=0;exitDy=-5;exitPerimeter=0;" edge="1" parent="1" source="sya3kmw8meV3yh9rnXG1-4" target="sya3kmw8meV3yh9rnXG1-5">
          <mxGeometry width="160" relative="1" as="geometry">
            <mxPoint x="230" y="360" as="sourcePoint" />
            <mxPoint x="470" y="360" as="targetPoint" />
          </mxGeometry>
        </mxCell>
        <mxCell id="sya3kmw8meV3yh9rnXG1-21" value="PIN" style="text;html=1;align=center;verticalAlign=middle;resizable=0;points=[];autosize=1;strokeColor=none;fillColor=none;" vertex="1" parent="1">
          <mxGeometry x="325" y="340" width="40" height="30" as="geometry" />
        </mxCell>
        <mxCell id="sya3kmw8meV3yh9rnXG1-22" value="Check PIN" style="text;html=1;align=center;verticalAlign=middle;resizable=0;points=[];autosize=1;strokeColor=none;fillColor=none;" vertex="1" parent="1">
          <mxGeometry x="550" y="358" width="80" height="30" as="geometry" />
        </mxCell>
        <mxCell id="sya3kmw8meV3yh9rnXG1-23" value="" style="html=1;verticalAlign=bottom;labelBackgroundColor=none;endArrow=block;endFill=1;dashed=1;rounded=0;entryX=1;entryY=0;entryDx=0;entryDy=5;entryPerimeter=0;" edge="1" parent="1" source="sya3kmw8meV3yh9rnXG1-5" target="sya3kmw8meV3yh9rnXG1-28">
          <mxGeometry width="160" relative="1" as="geometry">
            <mxPoint x="300" y="310" as="sourcePoint" />
            <mxPoint x="460" y="310" as="targetPoint" />
          </mxGeometry>
        </mxCell>
        <mxCell id="sya3kmw8meV3yh9rnXG1-24" value="" style="html=1;verticalAlign=bottom;labelBackgroundColor=none;endArrow=block;endFill=1;dashed=1;rounded=0;exitX=0;exitY=1;exitDx=0;exitDy=-5;exitPerimeter=0;" edge="1" parent="1" source="sya3kmw8meV3yh9rnXG1-6" target="sya3kmw8meV3yh9rnXG1-5">
          <mxGeometry width="160" relative="1" as="geometry">
            <mxPoint x="300" y="310" as="sourcePoint" />
            <mxPoint x="460" y="310" as="targetPoint" />
          </mxGeometry>
        </mxCell>
        <mxCell id="sya3kmw8meV3yh9rnXG1-25" value="PIN is Correct" style="text;html=1;align=center;verticalAlign=middle;resizable=0;points=[];autosize=1;strokeColor=none;fillColor=none;" vertex="1" parent="1">
          <mxGeometry x="560" y="405" width="100" height="30" as="geometry" />
        </mxCell>
        <mxCell id="sya3kmw8meV3yh9rnXG1-26" value="" style="html=1;points=[[0,0,0,0,5],[0,1,0,0,-5],[1,0,0,0,5],[1,1,0,0,-5]];perimeter=orthogonalPerimeter;outlineConnect=0;targetShapes=umlLifeline;portConstraint=eastwest;newEdgeStyle={&quot;curved&quot;:0,&quot;rounded&quot;:0};" vertex="1" parent="1">
          <mxGeometry x="215" y="630" width="10" height="80" as="geometry" />
        </mxCell>
        <mxCell id="sya3kmw8meV3yh9rnXG1-27" value="" style="html=1;points=[[0,0,0,0,5],[0,1,0,0,-5],[1,0,0,0,5],[1,1,0,0,-5]];perimeter=orthogonalPerimeter;outlineConnect=0;targetShapes=umlLifeline;portConstraint=eastwest;newEdgeStyle={&quot;curved&quot;:0,&quot;rounded&quot;:0};" vertex="1" parent="1">
          <mxGeometry x="735" y="540" width="10" height="70" as="geometry" />
        </mxCell>
        <mxCell id="sya3kmw8meV3yh9rnXG1-28" value="" style="html=1;points=[[0,0,0,0,5],[0,1,0,0,-5],[1,0,0,0,5],[1,1,0,0,-5]];perimeter=orthogonalPerimeter;outlineConnect=0;targetShapes=umlLifeline;portConstraint=eastwest;newEdgeStyle={&quot;curved&quot;:0,&quot;rounded&quot;:0};" vertex="1" parent="1">
          <mxGeometry x="215" y="460" width="10" height="60" as="geometry" />
        </mxCell>
        <mxCell id="sya3kmw8meV3yh9rnXG1-29" value="Cash Withdraw Option Menu" style="text;html=1;align=center;verticalAlign=middle;resizable=0;points=[];autosize=1;strokeColor=none;fillColor=none;" vertex="1" parent="1">
          <mxGeometry x="255" y="440" width="180" height="30" as="geometry" />
        </mxCell>
        <mxCell id="sya3kmw8meV3yh9rnXG1-30" value="" style="html=1;verticalAlign=bottom;labelBackgroundColor=none;endArrow=block;endFill=1;rounded=0;entryX=0;entryY=0;entryDx=0;entryDy=5;entryPerimeter=0;" edge="1" parent="1" source="sya3kmw8meV3yh9rnXG1-5" target="sya3kmw8meV3yh9rnXG1-27">
          <mxGeometry width="160" relative="1" as="geometry">
            <mxPoint x="300" y="470" as="sourcePoint" />
            <mxPoint x="460" y="470" as="targetPoint" />
          </mxGeometry>
        </mxCell>
        <mxCell id="sya3kmw8meV3yh9rnXG1-31" value="" style="html=1;verticalAlign=bottom;labelBackgroundColor=none;endArrow=block;endFill=1;rounded=0;" edge="1" parent="1" source="sya3kmw8meV3yh9rnXG1-28" target="sya3kmw8meV3yh9rnXG1-5">
          <mxGeometry width="160" relative="1" as="geometry">
            <mxPoint x="300" y="470" as="sourcePoint" />
            <mxPoint x="460" y="470" as="targetPoint" />
            <Array as="points">
              <mxPoint x="350" y="520" />
            </Array>
          </mxGeometry>
        </mxCell>
        <mxCell id="sya3kmw8meV3yh9rnXG1-32" value="Withdraw Request" style="text;html=1;align=center;verticalAlign=middle;resizable=0;points=[];autosize=1;strokeColor=none;fillColor=none;" vertex="1" parent="1">
          <mxGeometry x="280" y="488" width="120" height="30" as="geometry" />
        </mxCell>
        <mxCell id="sya3kmw8meV3yh9rnXG1-33" value="Check Balance" style="text;html=1;align=center;verticalAlign=middle;resizable=0;points=[];autosize=1;strokeColor=none;fillColor=none;" vertex="1" parent="1">
          <mxGeometry x="550" y="518" width="100" height="30" as="geometry" />
        </mxCell>
        <mxCell id="sya3kmw8meV3yh9rnXG1-34" value="" style="html=1;verticalAlign=bottom;labelBackgroundColor=none;endArrow=block;endFill=1;dashed=1;rounded=0;" edge="1" parent="1">
          <mxGeometry width="160" relative="1" as="geometry">
            <mxPoint x="300" y="470" as="sourcePoint" />
            <mxPoint x="460" y="470" as="targetPoint" />
          </mxGeometry>
        </mxCell>
        <mxCell id="sya3kmw8meV3yh9rnXG1-35" value="" style="html=1;verticalAlign=bottom;labelBackgroundColor=none;endArrow=block;endFill=1;dashed=1;rounded=0;" edge="1" parent="1" target="sya3kmw8meV3yh9rnXG1-5">
          <mxGeometry width="160" relative="1" as="geometry">
            <mxPoint x="730" y="600" as="sourcePoint" />
            <mxPoint x="460" y="470" as="targetPoint" />
          </mxGeometry>
        </mxCell>
        <mxCell id="sya3kmw8meV3yh9rnXG1-36" value="Sufficient Balance" style="text;html=1;align=center;verticalAlign=middle;resizable=0;points=[];autosize=1;strokeColor=none;fillColor=none;" vertex="1" parent="1">
          <mxGeometry x="550" y="570" width="120" height="30" as="geometry" />
        </mxCell>
        <mxCell id="sya3kmw8meV3yh9rnXG1-37" value="" style="html=1;verticalAlign=bottom;labelBackgroundColor=none;endArrow=block;endFill=1;dashed=1;rounded=0;entryX=1;entryY=1;entryDx=0;entryDy=-5;entryPerimeter=0;" edge="1" parent="1" source="sya3kmw8meV3yh9rnXG1-5" target="sya3kmw8meV3yh9rnXG1-26">
          <mxGeometry width="160" relative="1" as="geometry">
            <mxPoint x="300" y="680" as="sourcePoint" />
            <mxPoint x="460" y="680" as="targetPoint" />
          </mxGeometry>
        </mxCell>
        <mxCell id="sya3kmw8meV3yh9rnXG1-38" value="" style="html=1;verticalAlign=bottom;labelBackgroundColor=none;endArrow=block;endFill=1;dashed=1;rounded=0;" edge="1" parent="1" source="sya3kmw8meV3yh9rnXG1-5" target="sya3kmw8meV3yh9rnXG1-26">
          <mxGeometry width="160" relative="1" as="geometry">
            <mxPoint x="300" y="680" as="sourcePoint" />
            <mxPoint x="460" y="680" as="targetPoint" />
          </mxGeometry>
        </mxCell>
        <mxCell id="sya3kmw8meV3yh9rnXG1-39" value="Dispense Cash" style="text;html=1;align=center;verticalAlign=middle;resizable=0;points=[];autosize=1;strokeColor=none;fillColor=none;" vertex="1" parent="1">
          <mxGeometry x="290" y="600" width="100" height="30" as="geometry" />
        </mxCell>
        <mxCell id="sya3kmw8meV3yh9rnXG1-40" value="" style="html=1;verticalAlign=bottom;labelBackgroundColor=none;endArrow=block;endFill=1;rounded=0;" edge="1" parent="1" source="sya3kmw8meV3yh9rnXG1-26" target="sya3kmw8meV3yh9rnXG1-5">
          <mxGeometry width="160" relative="1" as="geometry">
            <mxPoint x="300" y="680" as="sourcePoint" />
            <mxPoint x="460" y="680" as="targetPoint" />
          </mxGeometry>
        </mxCell>
        <mxCell id="sya3kmw8meV3yh9rnXG1-41" value="Take Cash" style="text;html=1;align=center;verticalAlign=middle;resizable=0;points=[];autosize=1;strokeColor=none;fillColor=none;" vertex="1" parent="1">
          <mxGeometry x="300" y="640" width="80" height="30" as="geometry" />
        </mxCell>
        <mxCell id="sya3kmw8meV3yh9rnXG1-42" value="Return Card" style="text;html=1;align=center;verticalAlign=middle;resizable=0;points=[];autosize=1;strokeColor=none;fillColor=none;" vertex="1" parent="1">
          <mxGeometry x="305" y="678" width="90" height="30" as="geometry" />
        </mxCell>
        <mxCell id="sya3kmw8meV3yh9rnXG1-45" value="" style="endArrow=none;dashed=1;html=1;rounded=0;entryX=0.5;entryY=1;entryDx=0;entryDy=0;" edge="1" parent="1" source="sya3kmw8meV3yh9rnXG1-9" target="sya3kmw8meV3yh9rnXG1-3">
          <mxGeometry width="50" height="50" relative="1" as="geometry">
            <mxPoint x="490" y="330" as="sourcePoint" />
            <mxPoint x="540" y="280" as="targetPoint" />
          </mxGeometry>
        </mxCell>
        <mxCell id="sya3kmw8meV3yh9rnXG1-46" value="" style="endArrow=none;dashed=1;html=1;rounded=0;entryX=0.667;entryY=-0.05;entryDx=0;entryDy=0;entryPerimeter=0;" edge="1" parent="1" source="sya3kmw8meV3yh9rnXG1-6" target="sya3kmw8meV3yh9rnXG1-27">
          <mxGeometry width="50" height="50" relative="1" as="geometry">
            <mxPoint x="230" y="500" as="sourcePoint" />
            <mxPoint x="280" y="450" as="targetPoint" />
          </mxGeometry>
        </mxCell>
        <mxCell id="sya3kmw8meV3yh9rnXG1-47" value="" style="endArrow=none;dashed=1;html=1;rounded=0;entryX=0.533;entryY=-0.025;entryDx=0;entryDy=0;entryPerimeter=0;" edge="1" parent="1" source="sya3kmw8meV3yh9rnXG1-7" target="sya3kmw8meV3yh9rnXG1-6">
          <mxGeometry width="50" height="50" relative="1" as="geometry">
            <mxPoint x="230" y="500" as="sourcePoint" />
            <mxPoint x="280" y="450" as="targetPoint" />
          </mxGeometry>
        </mxCell>
        <mxCell id="sya3kmw8meV3yh9rnXG1-48" value="" style="endArrow=none;dashed=1;html=1;rounded=0;entryX=0.5;entryY=1;entryDx=0;entryDy=0;" edge="1" parent="1" source="sya3kmw8meV3yh9rnXG1-7" target="sya3kmw8meV3yh9rnXG1-1">
          <mxGeometry width="50" height="50" relative="1" as="geometry">
            <mxPoint x="230" y="500" as="sourcePoint" />
            <mxPoint x="280" y="450" as="targetPoint" />
          </mxGeometry>
        </mxCell>
        <mxCell id="sya3kmw8meV3yh9rnXG1-49" value="" style="endArrow=none;dashed=1;html=1;rounded=0;" edge="1" parent="1" source="sya3kmw8meV3yh9rnXG1-8" target="sya3kmw8meV3yh9rnXG1-5">
          <mxGeometry width="50" height="50" relative="1" as="geometry">
            <mxPoint x="230" y="500" as="sourcePoint" />
            <mxPoint x="280" y="450" as="targetPoint" />
          </mxGeometry>
        </mxCell>
        <mxCell id="sya3kmw8meV3yh9rnXG1-50" value="" style="endArrow=none;dashed=1;html=1;rounded=0;entryX=0.5;entryY=1;entryDx=0;entryDy=0;" edge="1" parent="1" source="sya3kmw8meV3yh9rnXG1-8" target="sya3kmw8meV3yh9rnXG1-2">
          <mxGeometry width="50" height="50" relative="1" as="geometry">
            <mxPoint x="230" y="500" as="sourcePoint" />
            <mxPoint x="280" y="450" as="targetPoint" />
          </mxGeometry>
        </mxCell>
        <mxCell id="sya3kmw8meV3yh9rnXG1-51" value="" style="endArrow=none;dashed=1;html=1;rounded=0;" edge="1" parent="1" source="sya3kmw8meV3yh9rnXG1-28" target="sya3kmw8meV3yh9rnXG1-26">
          <mxGeometry width="50" height="50" relative="1" as="geometry">
            <mxPoint x="230" y="500" as="sourcePoint" />
            <mxPoint x="280" y="450" as="targetPoint" />
          </mxGeometry>
        </mxCell>
        <mxCell id="sya3kmw8meV3yh9rnXG1-52" value="" style="endArrow=none;dashed=1;html=1;rounded=0;entryX=0.6;entryY=-0.013;entryDx=0;entryDy=0;entryPerimeter=0;" edge="1" parent="1" source="sya3kmw8meV3yh9rnXG1-9" target="sya3kmw8meV3yh9rnXG1-4">
          <mxGeometry width="50" height="50" relative="1" as="geometry">
            <mxPoint x="230" y="500" as="sourcePoint" />
            <mxPoint x="280" y="450" as="targetPoint" />
          </mxGeometry>
        </mxCell>
        <mxCell id="sya3kmw8meV3yh9rnXG1-53" value="" style="endArrow=none;dashed=1;html=1;rounded=0;" edge="1" parent="1" source="sya3kmw8meV3yh9rnXG1-4" target="sya3kmw8meV3yh9rnXG1-28">
          <mxGeometry width="50" height="50" relative="1" as="geometry">
            <mxPoint x="230" y="500" as="sourcePoint" />
            <mxPoint x="280" y="450" as="targetPoint" />
          </mxGeometry>
        </mxCell>
      </root>
    </mxGraphModel>
  </diagram>
</mxfile>
